<svg xmlns="http://www.w3.org/2000/svg" width="23.301" height="18.308" viewBox="0 0 23.301 18.308">
    <g id="Iconly_Bold_Category" transform="translate(-0.16 -2.692)">
        <g id="Group_1576" >
            <path id="Vector" d="M0,15.4a2.913,2.913,0,0,0,2.913,2.913H20.388A2.913,2.913,0,0,0,23.3,15.4V7.386H0Zm3.433-3.953a1.56,1.56,0,0,1,1.56-1.56h2.5a1.56,1.56,0,0,1,1.56,1.56v1.04a1.56,1.56,0,0,1-1.56,1.56h-2.5a1.56,1.56,0,0,1-1.56-1.56ZM20.388,0H2.913A2.913,2.913,0,0,0,0,2.913V4.265H23.3V2.913A2.913,2.913,0,0,0,20.388,0Z" transform="translate(0.16 2.692)" fill="#02100f"/>
        </g>
    </g>
</svg>
