<svg xmlns="http://www.w3.org/2000/svg" width="19.16" height="23.861" viewBox="0 0 19.16 23.861">
    <g id="list-line" transform="translate(-6 -2)">
        <path id="Path_79" d="M15,8h9v2H15Z" transform="translate(-2.904 -1.628)"/>
        <path id="Path_80"  d="M15,12h9v2H15Z" transform="translate(-2.904 -2.713)"/>
        <path id="Path_81"  d="M15,16h9v2H15Z" transform="translate(-2.904 -3.798)"/>
        <path id="Path_82"  d="M15,20h9v2H15Z" transform="translate(-2.904 -4.884)"/>
        <path id="Path_83"  d="M15,24h9v2H15Z" transform="translate(-2.904 -5.969)"/>
        <path id="Path_84"  d="M11,8h2v2H11Z" transform="translate(-1.1 -1.628)"/>
        <path id="Path_85"  d="M11,12h2v2H11Z" transform="translate(-1.1 -2.713)"/>
        <path id="Path_86"  d="M11,16h2v2H11Z" transform="translate(-1.1 -3.798)"/>
        <path id="Path_87"  d="M11,20h2v2H11Z" transform="translate(-1.1 -4.884)"/>
        <path id="Path_88"  d="M11,24h2v2H11Z" transform="translate(-1.1 -5.969)"/>
        <path id="Path_89"  d="M23.563,2H7.6A1.547,1.547,0,0,0,6,3.491V24.369a1.547,1.547,0,0,0,1.6,1.491H23.563a1.547,1.547,0,0,0,1.6-1.491V3.491A1.547,1.547,0,0,0,23.563,2Zm0,22.369H7.6V3.491H23.563Z"/>
    </g>
</svg>
