<svg xmlns="http://www.w3.org/2000/svg" width="24" height="25" viewBox="0 0 24 25">
    <g id="Icon_Bold_Category" transform="translate(0 0.5)">
        <g id="insert_drive_file">
            <path id="Vector" d="M0,0H24V24H0Z" fill="none"/>
        </g>
        <g id="__TEMP__SVG__" transform="translate(-2.494 -5)">
            <path id="Path_76"  d="M9,20.25h6.75V22.5H9Z" transform="translate(-1.112 -1.273)"/>
            <path id="Path_77" d="M9,24.75H20.25V27H9Z" transform="translate(-1.43 -1.636)"/>
            <path id="Path_78"  d="M24.661,4.5H6.333A1.972,1.972,0,0,0,4.5,6.583V27.417A1.972,1.972,0,0,0,6.333,29.5H24.661a1.972,1.972,0,0,0,1.833-2.083V6.583A1.972,1.972,0,0,0,24.661,4.5ZM17.33,6.583V10.75H13.664V6.583Zm-11,20.833V6.583h5.5v6.25h7.331V6.583h5.5V27.417Z"/>
        </g>
    </g>
</svg>
