<svg xmlns="http://www.w3.org/2000/svg" width="24.076" height="21.002" viewBox="0 0 24.076 21.002">
    <path id="store" d="M26.3,10.345l-1.718-5.25a.86.86,0,0,0-.859-.6H4.825a.86.86,0,0,0-.859.6l-1.718,5.25a1.06,1.06,0,0,0,0,.28v5.25a.867.867,0,0,0,.859.875h.859V25.5H5.684V16.75h5.155V25.5H24.586V16.75h.859a.867.867,0,0,0,.859-.875v-5.25a1.06,1.06,0,0,0,0-.28ZM22.868,23.75H12.558v-7h10.31ZM24.586,15H21.149V11.5H19.431V15h-4.3V11.5H13.417V15h-4.3V11.5H7.4V15H3.966V10.765L5.443,6.25H23.108l1.478,4.515Z" transform="translate(-2.238 -4.498)"/>
</svg>
